<svg width="228" height="228" viewBox="0 0 228 228" fill="none" xmlns="http://www.w3.org/2000/svg">
<g clip-path="url(#clip0)">
<path d="M192.314 214.511L187.251 174.005C186.487 167.891 182.28 162.759 176.435 160.811L153.852 153.283C152.051 152.683 150.042 153.412 149.135 155.08C149.037 155.259 148.934 155.434 148.834 155.611L143.471 153.823C140.205 152.734 138.001 149.677 138.001 146.234V133.333L155.232 126.154C164.175 122.427 170 113.689 170 104V99.9998C176.628 99.9998 182 94.6273 182 87.9998C182 85.0118 180.905 82.2808 179.098 80.1803C182.701 73.9913 186 65.6869 186 55.9999C186 34.6664 152.834 0 126 0C116.667 0 114 3.99999 114 3.99999C114 3.99999 111.334 0 102 0C75.1673 0 42.0004 34.6664 42.0004 55.9999C42.0004 65.6869 45.3004 73.9913 48.9024 80.1803C47.0954 82.2808 46.0004 85.0118 46.0004 87.9998C46.0004 94.6273 51.3729 99.9998 58.0004 99.9998V104C58.0004 113.688 63.8259 122.427 72.7693 126.154L90.0003 133.334V146.234C90.0003 149.678 87.7968 152.735 84.5303 153.824L79.1673 155.612C79.0673 155.435 78.9643 155.259 78.8668 155.08C77.9598 153.413 75.9503 152.684 74.1498 153.284L51.5669 160.811C45.7214 162.76 41.5144 167.892 40.7504 174.006L35.6874 214.512C34.7919 221.674 40.3769 228 47.5949 228H47.7074H180.295H180.408C187.625 228 193.21 221.674 192.314 214.511Z" fill="#FFD7A3"/>
<path d="M89.9998 133V146.234C89.9998 149.081 88.4913 151.66 86.1238 153.085C119.586 158.865 138 133 138 133H89.9998Z" fill="#FDC88E"/>
<path d="M126 0C116.666 0 114 3.99999 114 3.99999C114 3.99999 111.333 0 102 0C75.1669 0 41.9999 34.6664 41.9999 55.9999C41.9999 77.3333 57.9999 91.9998 57.9999 91.9998H170C170 91.9998 186 77.3328 186 55.9999C186 34.6664 152.833 0 126 0Z" fill="#734A3E"/>
<path d="M102 0C75.1669 0 41.9999 34.6664 41.9999 55.9999C41.9999 66.2029 45.6599 74.8743 49.4789 81.1518C49.4789 81.1518 69.9894 72.1258 69.9999 71.9998C74.3334 21 106.333 2 114 3.99999C114 3.99999 111.333 0 102 0Z" fill="#623F33"/>
<path d="M170 75.9998V67.9998C170 56.9544 161.045 47.9999 150 47.9999H77.9999C66.9544 47.9999 57.9999 56.9544 57.9999 67.9998V75.9998C51.3724 75.9998 45.9999 81.3728 45.9999 87.9998C45.9999 94.6273 51.3724 99.9998 57.9999 99.9998V104C57.9999 113.688 63.8254 122.427 72.7689 126.154L98.6143 136.923C103.489 138.954 108.718 140 113.999 140C119.28 140 124.509 138.954 129.384 136.923L155.231 126.153C164.174 122.427 170 113.689 170 104V99.9998C176.627 99.9998 182 94.6273 182 87.9998C182 81.3723 176.627 75.9998 170 75.9998Z" fill="#FFE1B2"/>
<path d="M85.9998 91.9999C83.7998 91.9999 81.9998 90.1999 81.9998 87.9999V83.9999C81.9998 81.7999 83.7998 79.9999 85.9998 79.9999C88.1998 79.9999 89.9998 81.7999 89.9998 83.9999V87.9999C89.9998 90.1999 88.1998 91.9999 85.9998 91.9999Z" fill="#623F33"/>
<path d="M142 91.9999C139.8 91.9999 138 90.1999 138 87.9999V83.9999C138 81.7999 139.8 79.9999 142 79.9999C144.2 79.9999 146 81.7999 146 83.9999V87.9999C146 90.1999 144.2 91.9999 142 91.9999Z" fill="#623F33"/>
<path d="M114 120.109C106.888 120.109 100.236 118.359 95.7498 115.307C93.9238 114.065 93.4488 111.576 94.6933 109.75C95.9333 107.926 98.4238 107.451 100.25 108.694C103.394 110.832 108.535 112.11 114 112.11C119.465 112.11 124.605 110.832 127.75 108.694C129.58 107.448 132.064 107.924 133.306 109.75C134.55 111.576 134.076 114.065 132.25 115.307C127.764 118.359 121.111 120.109 114 120.109Z" fill="#E4B07B"/>
<path d="M192.314 214.512L187.251 174.006C186.487 167.892 182.279 162.76 176.434 160.811L153.851 153.283C152.05 152.683 150.041 153.412 149.134 155.08C142.359 167.536 129.177 176 114 176C98.8228 176 85.6408 167.536 78.8659 155.08C77.9589 153.412 75.9494 152.683 74.1489 153.283L51.5659 160.811C45.7204 162.76 41.5134 167.892 40.7494 174.006L35.6865 214.512C34.791 221.674 40.3759 228 47.5939 228H180.407C187.624 228 193.209 221.674 192.314 214.512Z" fill="#57B9DD"/>
<path d="M44.0839 166.084C42.3079 168.332 41.1189 171.049 40.7494 174.005L35.6865 214.511C34.791 221.674 40.3759 227.999 47.5939 227.999H69.9999V201.966C69.9999 198.118 68.6129 194.399 66.0934 191.49L44.0839 166.084Z" fill="#43A0C5"/>
<path d="M183.916 166.084C185.692 168.332 186.881 171.049 187.25 174.005L192.313 214.511C193.209 221.674 187.624 227.999 180.406 227.999H158V201.966C158 198.118 159.387 194.399 161.906 191.49L183.916 166.084Z" fill="#43A0C5"/>
<path d="M134.5 51.8749V47.0004H73.5699C64.6664 47.0004 57.9999 56.9778 57.9999 66.5003V76.0003C51.3724 76.0003 45.9999 81.3728 45.9999 88.0003C45.9999 94.6278 51.3724 100 57.9999 100V104C57.9999 113.689 63.8254 122.428 72.7689 126.154L98.6138 136.923C99.8788 137.45 101.17 137.904 102.477 138.298C91.0553 129.942 83.4524 122.638 78.9974 117.862C75.7564 114.387 73.9999 109.801 73.9999 105.049V83.9998C73.9999 83.9998 89.8458 51.0574 134.5 51.8749Z" fill="#FFD7A3"/>
<path d="M114 182C131.654 182 147.894 171.581 157.497 154.499L153.851 153.283C152.05 152.683 150.04 153.412 149.133 155.08C142.359 167.536 129.177 176 114 176C98.8228 176 85.6409 167.536 78.8659 155.08C77.9589 153.412 75.9494 152.683 74.1484 153.283L70.5019 154.499C80.1059 171.581 96.3463 182 114 182Z" fill="#43A0C5"/>
<path d="M59.4179 45.8729C58.4994 47.2504 58.1459 48.9249 58.4299 50.5564C59.0429 54.0768 60.2864 60.8033 61.9999 67.9998C61.9999 67.9998 64.0984 64.5538 67.4724 60.0423C68.0684 63.9923 68.7313 67.0813 69.2288 69.1273C69.6833 70.9978 69.9998 71.9998 69.9998 71.9998C102 35.7499 114 51.9998 114 51.9998C114 51.9998 126 35.7499 158 71.9998C158 71.9998 159.387 67.6033 160.527 60.0418C163.901 64.5533 166 67.9998 166 67.9998C167.713 60.8033 168.957 54.0768 169.57 50.5564C169.854 48.9254 169.5 47.2504 168.582 45.8729C167.385 44.0784 165.371 43.0004 163.214 43.0004H64.7854C62.6289 43.0004 60.6144 44.0779 59.4179 45.8729Z" fill="#734A3E"/>
<path d="M64.7854 43.0004C62.6284 43.0004 60.6144 44.0784 59.4179 45.8729C58.4994 47.2509 58.1459 48.9249 58.4299 50.5564C59.0429 54.0769 60.2864 60.8033 61.9999 67.9998C61.9999 67.9998 64.0984 64.5538 67.4724 60.0423C68.0684 63.9923 68.7313 67.0813 69.2288 69.1273C69.6833 70.9978 69.9998 71.9998 69.9998 71.9998C70.9503 60.8138 73.2583 51.2164 76.3258 42.9999L64.7854 43.0004Z" fill="#623F33"/>
</g>
<defs>
<clipPath id="clip0">
<rect width="228" height="228" fill="white"/>
</clipPath>
</defs>
</svg>
