<svg width="150" height="150" viewBox="0 0 150 150" fill="none" xmlns="http://www.w3.org/2000/svg">
<path d="M144.035 54.7628V18.287C144.035 12.4534 139.283 7.70142 133.45 7.70142H10.5855C4.75202 7.70142 0 12.4534 0 18.287V92.5496C0 98.3831 4.75202 103.135 10.5855 103.135H45.39L41.3917 107.428H35.4271C34.0835 107.428 32.9692 108.543 32.9692 109.886C32.9692 111.23 34.0835 112.344 35.4271 112.344H69.6417V136.039C69.6417 139.447 72.4274 142.266 75.8685 142.266H102.283C105.692 142.266 108.51 139.48 108.51 136.039V131.09H141.577C146.231 131.09 150 127.321 150 122.668V62.8249C150 59.0232 147.477 55.8115 144.035 54.7628ZM145.084 62.8249V63.4803H88.5515V62.8249C88.5515 60.8913 90.1245 59.3182 92.0581 59.3182H141.577C143.511 59.3182 145.084 60.8913 145.084 62.8249ZM102.283 83.5699H88.5515V68.3962H145.084V117.063H108.51V89.7967C108.51 86.3556 105.692 83.5699 102.283 83.5699ZM103.594 93.0084H74.5903V89.7967C74.5903 89.0757 75.1803 88.4858 75.9012 88.4858H102.316C103.037 88.4858 103.627 89.0757 103.627 89.7967L103.594 93.0084ZM139.12 20.7449V54.4023H92.0581C87.4044 54.4023 83.6356 58.1712 83.6356 62.8249V83.5699H75.8685C72.4601 83.5699 69.6745 86.3556 69.6745 89.7639H4.91588V20.7449H139.12ZM74.5576 97.9243H103.561V127.911H74.5576V97.9243ZM10.5855 12.6173H133.45C135.711 12.6173 137.645 13.9282 138.562 15.829H5.50579C6.39065 13.9282 8.32423 12.6173 10.5855 12.6173ZM5.34193 94.7126H69.6417V98.252H10.5855C8.22591 98.252 6.16124 96.7772 5.34193 94.7126ZM48.1429 107.461L52.1411 103.168H69.6745V107.461H48.1429ZM102.283 137.35H75.8685C75.1475 137.35 74.5576 136.76 74.5576 136.039V132.794H103.561V136.039C103.561 136.793 103.004 137.35 102.283 137.35ZM141.577 126.174H108.477V121.979H145.051V122.635C145.084 124.601 143.511 126.174 141.577 126.174Z" fill="url(#paint0_linear)"/>
<defs>
<linearGradient id="paint0_linear" x1="6.25087e-06" y1="74.9964" x2="149.993" y2="74.9964" gradientUnits="userSpaceOnUse">
<stop stop-color="#E44D26"/>
<stop offset="1" stop-color="#FF994C"/>
</linearGradient>
</defs>
</svg>
