<svg width="130" height="130" viewBox="0 0 130 130" fill="none" xmlns="http://www.w3.org/2000/svg">
<g clip-path="url(#clip0)">
<path d="M78.9648 56.3672C66.6504 56.3672 56.6211 66.3965 56.6211 78.7109C56.6211 91.0254 66.6504 101.055 78.9648 101.055C91.2793 101.055 101.309 91.0254 101.309 78.7109C101.309 66.3965 91.2793 56.3672 78.9648 56.3672ZM78.9648 95.9766C69.4434 95.9766 61.6992 88.2324 61.6992 78.7109C61.6992 69.1895 69.4434 61.4453 78.9648 61.4453C88.4863 61.4453 96.2305 69.1895 96.2305 78.7109C96.2305 88.2324 88.4863 95.9766 78.9648 95.9766Z" fill="url(#paint0_linear)"/>
<path d="M127.74 115.299L107.58 95.1387C110.373 90.2891 111.973 84.6777 111.973 78.7109C111.973 69.875 108.494 61.8516 102.832 55.9355V27.4219C102.832 26.7617 102.578 26.1016 102.096 25.6191L77.2129 0.736328C76.7051 0.253906 76.0703 0 75.4102 0H7.87109C3.68164 0 0.253906 3.42773 0.253906 7.61719V122.383C0.253906 126.572 3.68164 130 7.87109 130H95.2148C99.4043 130 102.832 126.572 102.832 122.383V114.74L115.553 127.461C117.229 129.137 119.438 129.975 121.646 129.975C123.855 129.975 126.064 129.137 127.74 127.461C131.092 124.109 131.092 118.65 127.74 115.299ZM78.9648 106.641C63.5527 106.641 51.0352 94.123 51.0352 78.7109C51.0352 63.2988 63.5527 50.7812 78.9648 50.7812C94.377 50.7812 106.895 63.2988 106.895 78.7109C106.895 94.123 94.377 106.641 78.9648 106.641ZM77.9492 8.6582L94.1484 24.8828H80.4883C79.0918 24.8828 77.9492 23.7402 77.9492 22.3438V8.6582ZM97.7539 122.383C97.7539 123.779 96.6113 124.922 95.2148 124.922H7.87109C6.47461 124.922 5.33203 123.779 5.33203 122.383V7.61719C5.33203 6.2207 6.47461 5.07812 7.87109 5.07812H72.8711V22.3438C72.8711 26.5332 76.2988 29.9609 80.4883 29.9609H97.7539V51.5938C92.4219 47.8867 85.9473 45.7031 78.9648 45.7031C60.7598 45.7031 45.957 60.5059 45.957 78.7109C45.957 82.2656 46.5156 85.6934 47.5566 88.8926H16.5547C15.1582 88.8926 14.0156 90.0352 14.0156 91.4316C14.0156 92.8281 15.1582 93.9707 16.5547 93.9707H48.9785C49.207 93.9707 49.4609 93.9453 49.6641 93.8691C55.1484 104.457 66.2188 111.719 78.9648 111.719C84.957 111.719 90.5684 110.119 95.3926 107.326L97.7285 109.662V122.383H97.7539ZM124.135 123.881C122.764 125.252 120.529 125.252 119.133 123.881L99.6582 104.406C101.486 102.934 103.162 101.258 104.66 99.4043L124.135 118.879C125.531 120.275 125.531 122.51 124.135 123.881Z" fill="url(#paint1_linear)"/>
<path d="M78.9648 67.2852C77.5684 67.2852 76.4258 68.4277 76.4258 69.8242C76.4258 71.2207 77.5684 72.3633 78.9648 72.3633C82.4688 72.3633 85.3125 75.207 85.3125 78.7109C85.3125 80.1074 86.4551 81.25 87.8516 81.25C89.248 81.25 90.3906 80.1074 90.3906 78.7109C90.3906 72.4141 85.2617 67.2852 78.9648 67.2852Z" fill="url(#paint2_linear)"/>
<path d="M39.3809 71.2969H16.5293C15.1328 71.2969 13.9902 72.4395 13.9902 73.8359C13.9902 75.2324 15.1328 76.375 16.5293 76.375H39.3809C40.7774 76.375 41.9199 75.2324 41.9199 73.8359C41.9199 72.4395 40.8027 71.2969 39.3809 71.2969Z" fill="url(#paint3_linear)"/>
<path d="M40.9043 53.7012H16.5547C15.1582 53.7012 14.0156 54.8438 14.0156 56.2402C14.0156 57.6367 15.1582 58.7793 16.5547 58.7793H40.9043C42.3008 58.7793 43.4434 57.6367 43.4434 56.2402C43.4434 54.8184 42.3008 53.7012 40.9043 53.7012Z" fill="url(#paint4_linear)"/>
<path d="M48.4961 106.514C47.8359 106.514 47.1758 106.793 46.6934 107.25C46.2109 107.732 45.957 108.367 45.957 109.053C45.957 109.713 46.2363 110.373 46.6934 110.855C47.1758 111.338 47.8105 111.592 48.4961 111.592C49.1562 111.592 49.8164 111.313 50.2988 110.855C50.7813 110.373 51.0352 109.738 51.0352 109.053C51.0352 108.393 50.7559 107.732 50.2988 107.25C49.8164 106.768 49.1562 106.514 48.4961 106.514Z" fill="url(#paint5_linear)"/>
<path d="M38.0605 106.514H16.5547C15.1582 106.514 14.0156 107.656 14.0156 109.053C14.0156 110.449 15.1582 111.592 16.5547 111.592H38.0859C39.4824 111.592 40.625 110.449 40.625 109.053C40.5996 107.631 39.4824 106.514 38.0605 106.514Z" fill="url(#paint6_linear)"/>
<path d="M16.5293 41.1582C17.1895 41.1582 17.8496 40.8789 18.332 40.4219C18.8145 39.9395 19.0684 39.3047 19.0684 38.6191C19.0684 37.959 18.7891 37.2988 18.332 36.8164C17.8496 36.334 17.2148 36.0801 16.5293 36.0801C15.8438 36.0801 15.209 36.3594 14.7266 36.8164C14.2441 37.2988 13.9902 37.9336 13.9902 38.6191C13.9902 39.2793 14.2695 39.9395 14.7266 40.4219C15.209 40.9043 15.8691 41.1582 16.5293 41.1582Z" fill="url(#paint7_linear)"/>
<path d="M65.2539 36.0801H27.2949C25.8984 36.0801 24.7559 37.2227 24.7559 38.6191C24.7559 40.0156 25.8984 41.1582 27.2949 41.1582H65.2539C66.6504 41.1582 67.793 40.0156 67.793 38.6191C67.793 37.2227 66.6504 36.0801 65.2539 36.0801Z" fill="url(#paint8_linear)"/>
<path d="M16.5547 23.5625H65.2539C66.6504 23.5625 67.793 22.4199 67.793 21.0234C67.793 19.627 66.6504 18.4844 65.2539 18.4844H16.5547C15.1582 18.4844 14.0156 19.627 14.0156 21.0234C14.0156 22.4199 15.1328 23.5625 16.5547 23.5625Z" fill="url(#paint9_linear)"/>
</g>
<defs>
<linearGradient id="paint0_linear" x1="56.6221" y1="78.7109" x2="101.31" y2="78.7109" gradientUnits="userSpaceOnUse">
<stop stop-color="#E44D26"/>
<stop offset="1" stop-color="#FF994C"/>
</linearGradient>
<linearGradient id="paint1_linear" x1="0.253906" y1="65" x2="130.25" y2="65" gradientUnits="userSpaceOnUse">
<stop stop-color="#E44D26"/>
<stop offset="1" stop-color="#FF994C"/>
</linearGradient>
<linearGradient id="paint2_linear" x1="76.4268" y1="74.2681" x2="90.3906" y2="74.2681" gradientUnits="userSpaceOnUse">
<stop stop-color="#E44D26"/>
<stop offset="1" stop-color="#FF994C"/>
</linearGradient>
<linearGradient id="paint3_linear" x1="14.0035" y1="73.8342" x2="41.9322" y2="73.8342" gradientUnits="userSpaceOnUse">
<stop stop-color="#E44D26"/>
<stop offset="1" stop-color="#FF994C"/>
</linearGradient>
<linearGradient id="paint4_linear" x1="14.0035" y1="56.2303" x2="43.4368" y2="56.2303" gradientUnits="userSpaceOnUse">
<stop stop-color="#E44D26"/>
<stop offset="1" stop-color="#FF994C"/>
</linearGradient>
<linearGradient id="paint5_linear" x1="45.957" y1="109.043" x2="51.0352" y2="109.043" gradientUnits="userSpaceOnUse">
<stop stop-color="#E44D26"/>
<stop offset="1" stop-color="#FF994C"/>
</linearGradient>
<linearGradient id="paint6_linear" x1="14.0035" y1="109.043" x2="40.6072" y2="109.043" gradientUnits="userSpaceOnUse">
<stop stop-color="#E44D26"/>
<stop offset="1" stop-color="#FF994C"/>
</linearGradient>
<linearGradient id="paint7_linear" x1="14.0025" y1="38.6265" x2="19.0807" y2="38.6265" gradientUnits="userSpaceOnUse">
<stop stop-color="#E44D26"/>
<stop offset="1" stop-color="#FF994C"/>
</linearGradient>
<linearGradient id="paint8_linear" x1="24.7658" y1="38.6265" x2="67.793" y2="38.6265" gradientUnits="userSpaceOnUse">
<stop stop-color="#E44D26"/>
<stop offset="1" stop-color="#FF994C"/>
</linearGradient>
<linearGradient id="paint9_linear" x1="14.0035" y1="21.0217" x2="67.793" y2="21.0217" gradientUnits="userSpaceOnUse">
<stop stop-color="#E44D26"/>
<stop offset="1" stop-color="#FF994C"/>
</linearGradient>
<clipPath id="clip0">
<rect width="130" height="130" fill="white"/>
</clipPath>
</defs>
</svg>
