<?xml version="1.0" encoding="utf-8"?>
<!-- Generator: Adobe Illustrator 23.0.0, SVG Export Plug-In . SVG Version: 6.00 Build 0)  -->
<svg version="1.1" id="Шар_1" xmlns="http://www.w3.org/2000/svg" xmlns:xlink="http://www.w3.org/1999/xlink" x="0px" y="0px"
	 viewBox="0 0 251 188" style="enable-background:new 0 0 251 188;" xml:space="preserve">
<style type="text/css">
	.st0{fill:#20B2FF;}
	.st1{fill-rule:evenodd;clip-rule:evenodd;fill:#20B2FF;}
</style>
<g id="SvgjsG2934" transform="translate(-6.519999980926514,-56.12065887451172)" xmlns:name="main_text">
	<path class="st0" d="M53.4,197.7v12.5h13.2v11.4c-4.8,5.5-11.8,8.9-19.7,8.9c-14.5,0-26.2-8.1-26.2-27.3
		c0-17.2,11.7-27.3,26.2-27.3c7.2,0,13.8,2.9,18.5,7.6l9.2-9.2c-7.1-7.2-16.9-11.6-27.8-11.6c-21.7,0-39.3,17.1-39.3,40.4
		c0,25.7,16.5,40.4,37.6,40.4c9.3,0,16-2.2,22.4-8.2l0.7,7.4h11.5v-45.1H53.4z M135.5,242.4H150L134,207.6
		c7.1-2.6,15.2-8.2,15.2-20.9c0-22.9-26.3-22.9-26.3-22.9H96.7v78.6h13.1v-32.8h10.7L135.5,242.4z M109.8,176.9h13
		c0,0,13.1,0,13.1,9.8c0,9.9-13.1,9.9-13.1,9.9h-13V176.9z M164.4,242.4h13.2v-78.6h-13.2V242.4z M195.5,163.8v78.6h13.1
		c19.6,0,46-5.7,46-39.3c0-34.9-26.9-39.3-46-39.3H195.5z M208.7,229.6v-53c0,0,32.7-4.9,32.7,26.5
		C241.4,234.1,208.7,229.6,208.7,229.6z"/>
</g>
<g id="SvgjsG2935" transform="translate(73.99032974243164,-5) scale(1)" xmlns:name="symbol_mainfill">
	<title>structure10</title>
	<desc>Created with Sketch.</desc>
	<g>
		<path class="st1" d="M59.9,58.6h13.4V45.3H59.9V58.6z M59.9,74.6h13.4V61.3H59.9V74.6z M43.9,74.6h13.4V61.3H43.9V74.6z
			 M27.9,58.6h13.4V45.3H27.9V58.6z M27.9,74.6h13.4V61.3H27.9V74.6z M27.9,42.6h13.4V29.3H27.9V42.6z M43.9,58.6h13.4V45.3H43.9
			V58.6z M43.9,42.6h13.4V29.3H43.9V42.6z M92.3,7.4H8.9C7.3,7.4,6,8.7,6,10.2v83.4c0,1.6,1.3,2.8,2.8,2.8h83.4
			c1.6,0,2.8-1.3,2.8-2.8V10.2C95.1,8.7,93.9,7.4,92.3,7.4L92.3,7.4z M88.4,29.3H75.9v13.4h12.5v2.6H75.9v13.4h12.5v2.6H75.9v13.4
			h12.5v2.6H75.9v12.5h-2.6V77.3H59.9v12.5h-2.6V77.3H43.9v12.5h-2.6V77.3H27.9v12.5h-2.6V77.3H12.8v-2.6h12.5V61.3H12.8v-2.6h12.5
			V45.3H12.8v-2.6h12.5V29.3H12.8v-2.6h12.5V14.2h2.6v12.5h13.4V14.2h2.6v12.5h13.4V14.2h2.6v12.5h13.4V14.2h2.6v12.5h12.5V29.3
			L88.4,29.3z M59.9,42.6h13.4V29.3H59.9V42.6z"/>
	</g>
</g>
</svg>
