<svg width="100" height="100" viewBox="0 0 100 100" fill="none" xmlns="http://www.w3.org/2000/svg">
<path d="M93.2953 26.1345C88.8255 18.472 82.7594 12.4059 75.0969 7.93612C67.4344 3.46634 59.0878 1.23145 50.0114 1.23145C40.935 1.23145 32.5656 3.46634 24.9031 7.93612C17.2406 12.4059 11.1745 18.472 6.70468 26.1345C2.23489 33.797 0 42.1665 0 51.2201C0 62.1208 3.1699 71.9042 9.5325 80.6157C15.8951 89.3272 24.1049 95.3478 34.1847 98.6773C35.3478 98.9053 36.2144 98.7457 36.7845 98.2212C37.3546 97.6967 37.6283 97.0581 37.6283 96.26C37.6283 96.1231 37.6283 94.9601 37.6055 92.748C37.5827 90.5359 37.5827 88.5975 37.5827 86.9555L36.0775 87.2064C35.1197 87.3888 33.9111 87.4572 32.4743 87.4344C31.0148 87.4116 29.5097 87.252 27.959 86.9783C26.3854 86.7047 24.9487 86.0433 23.6032 85.0171C22.2577 83.9909 21.2999 82.6682 20.7298 81.0034L20.0684 79.4983C19.6351 78.4949 18.951 77.4002 18.016 76.1687C17.081 74.9601 16.146 74.1391 15.1881 73.7058L14.732 73.3865C14.4356 73.1585 14.1391 72.9076 13.8883 72.6112C13.6374 72.3147 13.4322 71.9954 13.2953 71.699C13.1585 71.4025 13.2725 71.1516 13.6146 70.9464C13.9567 70.7411 14.5952 70.6955 15.5074 70.6955L16.8073 70.9008C17.6739 71.0832 18.7457 71.5849 20.0228 72.4743C21.2999 73.3409 22.3489 74.4812 23.1699 75.8495C24.1733 77.6283 25.382 78.9966 26.7731 79.9088C28.187 80.8438 29.6009 81.2999 31.0376 81.2999C32.4743 81.2999 33.7058 81.1858 34.7548 80.9806C35.8039 80.7525 36.7617 80.4333 37.6739 80C38.0616 77.0809 39.1334 74.846 40.8666 73.2953C38.4036 73.0444 36.1688 72.634 34.1847 72.1322C32.2007 71.6077 30.171 70.764 28.073 69.6009C25.9749 68.4378 24.2189 66.9783 22.8278 65.2451C21.4367 63.512 20.2965 61.2315 19.4071 58.4036C18.5177 55.5758 18.0616 52.3375 18.0616 48.6431C18.0616 43.3979 19.7719 38.9281 23.2155 35.2337C21.6192 31.2885 21.756 26.8643 23.6716 21.9612C24.9259 21.5735 26.7959 21.87 29.2816 22.8506C31.7674 23.8312 33.569 24.675 34.7092 25.3592C35.8495 26.0433 36.7845 26.6362 37.4686 27.1151C41.5051 25.9977 45.6785 25.4276 49.9658 25.4276C54.2531 25.4276 58.4265 25.9977 62.4629 27.1151L64.9259 25.5644C66.6135 24.5154 68.6203 23.5576 70.9236 22.691C73.2269 21.8244 74.9829 21.5735 76.1916 21.984C78.1528 26.8871 78.3124 31.3113 76.7161 35.2565C80.1368 38.951 81.87 43.4207 81.87 48.6659C81.87 52.3603 81.4139 55.6214 80.5245 58.472C79.6351 61.3227 78.4949 63.6032 77.081 65.3135C75.667 67.0239 73.9111 68.4834 71.813 69.6465C69.7149 70.8096 67.6625 71.6761 65.7013 72.1779C63.7172 72.7024 61.5051 73.0901 59.0194 73.3409C61.2771 75.3021 62.3945 78.3808 62.3945 82.577V96.3056C62.3945 97.0809 62.6682 97.7423 63.2155 98.2668C63.7628 98.7913 64.6066 98.951 65.7925 98.7229C75.8723 95.3706 84.0821 89.35 90.4447 80.6613C96.8073 71.9498 99.9772 62.1665 99.9772 51.2657C100 42.1665 97.7651 33.797 93.2953 26.1345Z" fill="url(#paint0_linear)"/>
<defs>
<linearGradient id="paint0_linear" x1="0" y1="50.0278" x2="99.9774" y2="50.0278" gradientUnits="userSpaceOnUse">
<stop stop-color="#4E55FF"/>
<stop offset="1" stop-color="#B14EFF"/>
</linearGradient>
</defs>
</svg>
