<svg width="100" height="100" viewBox="0 0 100 100" fill="none" xmlns="http://www.w3.org/2000/svg">
<g clip-path="url(#clip0)">
<path d="M-16.3333 -28.3335C-7.22222 -28.3335 11.8111 -28.3335 18.1111 -22.6668L47.4445 -28.3335C38.8889 -35.1557 -9.77777 -28.889 -21.5556 -28.889C-47.0444 -28.889 -25.4778 1.9221 -22.0111 28.3888C-22.3889 8.53321 -35.6889 -28.3335 -16.3333 -28.3335Z" fill="url(#paint0_linear)"/>
<path d="M84.7444 14.0552L77.1111 26.9996C82.3778 33.2218 85.5556 41.2218 85.5556 49.9996C85.5556 69.633 69.6333 85.5552 50 85.5552C48.2222 85.5552 46.4444 85.3996 44.7333 85.1774L37 98.2885C41.1556 99.3996 45.5111 99.9996 50 99.9996C77.6111 99.9996 100 77.6107 100 49.9996C100 35.8885 94.1556 23.1441 84.7444 14.0552Z" fill="url(#paint1_linear)"/>
<path d="M65.1777 33.4667C65.0666 33.3556 64.9333 33.2667 64.8333 33.1445C59.7555 27.1112 53.2555 24.8223 45.5666 26.2445C41.4444 27.0112 37.9222 29.1778 35.0666 32.3111C34.5666 32.8556 34.8666 33.2223 35.2778 33.6334C36.8555 35.2 38.4222 36.8 39.9889 38.3889C40.5889 38.7 40.9778 38.3667 41.3555 37.9445C41.8778 37.3778 42.3889 36.8 43.0222 36.3556C45.9666 34.2778 49.2333 33.7889 52.7111 34.4334C53.2222 34.3778 53.6444 34.6223 54.0889 34.8111C56.3777 35.7889 58.0444 37.4778 59.4222 39.5C59.6333 39.4667 59.8222 39.3778 59.9666 39.2445C61.6111 37.6889 63.1889 36.0667 64.7777 34.4556C65.0666 34.1889 65.2222 33.8556 65.1777 33.4667Z" fill="url(#paint2_linear)"/>
<path d="M41.2889 60.2555C40.8778 59.7777 40.4778 59.7444 40 60.2444C38.4556 61.8444 36.8778 63.411 35.3111 64.9777C35.0111 65.2666 34.8667 65.4555 35.2334 65.8444C37.2334 67.9555 39.5889 69.5222 42.2667 70.6666C43.9445 71.3888 45.7556 71.5777 47.4778 72.0999C47.8445 72.4222 48.3112 72.3666 48.7556 72.3888C50.2445 72.3888 51.7001 72.2777 53.1889 72.011C57.6556 71.211 61.3112 69.0777 64.3223 65.7444C64.6334 65.3999 64.9667 65.1222 64.8556 64.5999C63.1889 62.9111 61.5112 61.2333 59.8556 59.5333C59.3445 58.9999 58.9334 58.8444 58.4667 59.5777C57.7778 60.6444 56.8112 61.4333 55.7667 62.1444C52.8223 64.1555 49.6334 64.3888 46.3 63.4444C44.3112 62.8777 42.6334 61.8222 41.2889 60.2555Z" fill="url(#paint3_linear)"/>
<path d="M53.6444 41.4776C53.2222 40.422 52.5222 39.8887 51.3333 39.9887C50.3778 40.0665 49.4 40.0776 48.4333 39.9887C46.4667 39.822 45.9445 40.9776 45.9445 42.422C45.9445 46.2998 45.9333 50.1776 45.9445 54.0553C45.9445 55.022 46.1667 55.8998 47.1333 56.3887C48.3778 57.1331 49.7445 56.7776 51.0556 56.8109C53.1 56.8442 53.9222 55.9776 53.9333 53.9331C53.9445 50.1998 53.9445 46.4776 53.9333 42.7442C53.9333 42.2998 54 41.8442 53.6444 41.4776Z" fill="url(#paint4_linear)"/>
<path d="M14.5444 52.6667H35.7778V44.1556H14.9222C17.7111 27.3 32.3556 14.4444 50 14.4444C59.1333 14.4444 67.4445 17.8889 73.7333 23.5333L81.1778 10.9111C72.6222 4.07778 61.7778 0 50 0C22.3889 0 0 22.3889 0 50C0 71.4444 13.5 89.7222 32.4444 96.8333L39.9333 84.1111C26.0222 80.0222 15.6556 67.6333 14.5444 52.6667Z" fill="url(#paint5_linear)"/>
</g>
<defs>
<linearGradient id="paint0_linear" x1="-33.8283" y1="-1.56392" x2="47.4444" y2="-1.56392" gradientUnits="userSpaceOnUse">
<stop stop-color="#4E55FF"/>
<stop offset="1" stop-color="#B14EFF"/>
</linearGradient>
<linearGradient id="paint1_linear" x1="37" y1="57.0274" x2="100" y2="57.0274" gradientUnits="userSpaceOnUse">
<stop stop-color="#4E55FF"/>
<stop offset="1" stop-color="#B14EFF"/>
</linearGradient>
<linearGradient id="paint2_linear" x1="34.8053" y1="32.668" x2="65.1852" y2="32.668" gradientUnits="userSpaceOnUse">
<stop stop-color="#4E55FF"/>
<stop offset="1" stop-color="#B14EFF"/>
</linearGradient>
<linearGradient id="paint3_linear" x1="35.0155" y1="65.7342" x2="64.8775" y2="65.7342" gradientUnits="userSpaceOnUse">
<stop stop-color="#4E55FF"/>
<stop offset="1" stop-color="#B14EFF"/>
</linearGradient>
<linearGradient id="paint4_linear" x1="45.9395" y1="48.4199" x2="53.9417" y2="48.4199" gradientUnits="userSpaceOnUse">
<stop stop-color="#4E55FF"/>
<stop offset="1" stop-color="#B14EFF"/>
</linearGradient>
<linearGradient id="paint5_linear" x1="0" y1="48.4167" x2="81.1778" y2="48.4167" gradientUnits="userSpaceOnUse">
<stop stop-color="#4E55FF"/>
<stop offset="1" stop-color="#B14EFF"/>
</linearGradient>
<clipPath id="clip0">
<rect width="100" height="100" fill="white"/>
</clipPath>
</defs>
</svg>
