<svg width="100" height="100" viewBox="0 0 100 100" fill="none" xmlns="http://www.w3.org/2000/svg">
<path d="M50 100C77.6142 100 100 77.6142 100 50C100 22.3858 77.6142 0 50 0C22.3858 0 0 22.3858 0 50C0 77.6142 22.3858 100 50 100Z" fill="url(#paint0_linear)"/>
<path d="M22.8711 48.9258L71.0938 30.332C73.3399 29.5313 75.293 30.8789 74.5508 34.2578L66.3477 72.9297C65.7422 75.6641 64.1016 76.3477 61.836 75.0391L49.336 65.8203L43.3008 71.6211C42.6367 72.2852 42.0703 72.8516 40.7813 72.8516L41.6602 60.1367L64.8438 39.2188C65.8594 38.3399 64.6094 37.832 63.2813 38.7109L34.6485 56.7383L22.3047 52.8906C19.6289 52.0313 19.5703 50.2149 22.8711 48.9258Z" fill="white"/>
<defs>
<linearGradient id="paint0_linear" x1="0" y1="50" x2="100" y2="50" gradientUnits="userSpaceOnUse">
<stop stop-color="#4E55FF"/>
<stop offset="1" stop-color="#B14EFF"/>
</linearGradient>
</defs>
</svg>
